<svg width="24" height="24" viewBox="0 0 24 24" fill="none" xmlns="http://www.w3.org/2000/svg">
<path d="M6.763 10.036L4.5 12.299L6.763 14.562L9.026 12.299L6.763 10.036Z" fill="#FF9900"/>
<path d="M12.026 3.773L9.763 6.036L12.026 8.299L14.289 6.036L12.026 3.773Z" fill="#FF9900"/>
<path d="M17.289 10.036L15.026 12.299L17.289 14.562L19.552 12.299L17.289 10.036Z" fill="#FF9900"/>
<path d="M12.026 16.299L9.763 18.562L12.026 20.825L14.289 18.562L12.026 16.299Z" fill="#FF9900"/>
<path d="M6.763 16.299L4.5 18.562L6.763 20.825L9.026 18.562L6.763 16.299Z" fill="#FF9900"/>
<path d="M12 2C6.48 2 2 6.48 2 12s4.48 10 10 10 10-4.48 10-10S17.52 2 12 2zm-1 17.93c-3.94-.49-7-3.85-7-7.93 0-.62.08-1.21.21-1.79L9 15v1c0 1.1.9 2 2 2v1.93zm6.9-2.54c-.26-.81-1-1.39-1.9-1.39h-1v-3c0-.55-.45-1-1-1H8v-2h2c.55 0 1-.45 1-1V7h2c1.1 0 2-.9 2-2v-.41c2.93 1.19 5 4.06 5 7.41 0 2.08-.8 3.97-2.1 5.39z" fill="#FF9900"/>
</svg> 