<svg width="24" height="24" viewBox="0 0 24 24" fill="none" xmlns="http://www.w3.org/2000/svg">
  <path d="M12 2C8.13 2 5 5.13 5 9C5 12.87 8.13 16 12 16C15.87 16 19 12.87 19 9C19 5.13 15.87 2 12 2Z" fill="#10B981"/>
  <path d="M12 4C9.24 4 7 6.24 7 9C7 11.76 9.24 14 12 14C14.76 14 17 11.76 17 9C17 6.24 14.76 4 12 4Z" fill="white"/>
  <path d="M12 6C10.34 6 9 7.34 9 9C9 10.66 10.34 12 12 12C13.66 12 15 10.66 15 9C15 7.34 13.66 6 12 6Z" fill="#10B981"/>
  <path d="M12 8C11.45 8 11 8.45 11 9C11 9.55 11.45 10 12 10C12.55 10 13 9.55 13 9C13 8.45 12.55 8 12 8Z" fill="white"/>
</svg> 