<svg width="24" height="24" viewBox="0 0 24 24" fill="none" xmlns="http://www.w3.org/2000/svg">
<path d="M11.998 24c-6.617 0-11.999-5.382-11.999-11.999S5.381 0 11.998 0c6.617 0 11.999 5.382 11.999 11.999S18.615 24 11.998 24z" fill="#339933"/>
<path d="M18.155 6.27c-.24-.14-.52-.21-.8-.21-.28 0-.56.07-.8.21l-1.4.81c-.24.14-.4.38-.4.65v1.62c0 .27.16.51.4.65l1.4.81c.24.14.52.21.8.21.28 0 .56-.07.8-.21l1.4-.81c.24-.14.4-.38.4-.65V6.92c0-.27-.16-.51-.4-.65l-1.4-.81z" fill="white"/>
<path d="M5.845 6.27c-.24-.14-.52-.21-.8-.21-.28 0-.56.07-.8.21l-1.4.81c-.24.14-.4.38-.4.65v1.62c0 .27.16.51.4.65l1.4.81c.24.14.52.21.8.21.28 0 .56-.07.8-.21l1.4-.81c.24-.14.4-.38.4-.65V6.92c0-.27-.16-.51-.4-.65l-1.4-.81z" fill="white"/>
<path d="M12 8.5c-1.93 0-3.5 1.57-3.5 3.5s1.57 3.5 3.5 3.5 3.5-1.57 3.5-3.5-1.57-3.5-3.5-3.5z" fill="white"/>
<path d="M12 10c-.83 0-1.5.67-1.5 1.5s.67 1.5 1.5 1.5 1.5-.67 1.5-1.5-.67-1.5-1.5-1.5z" fill="#339933"/>
</svg>
