<svg width="24" height="24" viewBox="0 0 24 24" fill="none" xmlns="http://www.w3.org/2000/svg">
<path d="M1.125 0C.502 0 0 .502 0 1.125v21.75C0 23.498.502 24 1.125 24h21.75c.623 0 1.125-.502 1.125-1.125V1.125C24 .502 23.498 0 22.875 0H1.125z" fill="#3178C6"/>
<path d="M5.432 18.89c-.115 0-.199-.014-.272-.04v-1.199c.073.013.157.02.252.02.345 0 .551-.09.551-.466v-5.558h.894v5.746c0 .9-.45 1.497-1.425 1.497zM8.952 18.89c-.115 0-.199-.014-.272-.04v-1.199c.073.013.157.02.252.02.345 0 .551-.09.551-.466v-5.558h.894v5.746c0 .9-.45 1.497-1.425 1.497zM12.472 18.89c-.115 0-.199-.014-.272-.04v-1.199c.073.013.157.02.252.02.345 0 .551-.09.551-.466v-5.558h.894v5.746c0 .9-.45 1.497-1.425 1.497zM16.992 18.89c-.115 0-.199-.014-.272-.04v-1.199c.073.013.157.02.252.02.345 0 .551-.09.551-.466v-5.558h.894v5.746c0 .9-.45 1.497-1.425 1.497z" fill="white"/>
<path d="M20.512 18.89c-.115 0-.199-.014-.272-.04v-1.199c.073.013.157.02.252.02.345 0 .551-.09.551-.466v-5.558h.894v5.746c0 .9-.45 1.497-1.425 1.497z" fill="white"/>
</svg>
